<svg width="19" height="21" viewBox="0 0 19 21" fill="none" xmlns="http://www.w3.org/2000/svg">
<g clip-path="url(#clip0)">
<path d="M18.9815 6.38005C18.937 5.31738 18.7737 4.5868 18.5399 3.95374C18.2986 3.28176 17.9274 2.68014 17.4411 2.18002C16.966 1.6721 16.3907 1.27743 15.7597 1.02745C15.1548 0.781274 14.4644 0.609427 13.4549 0.562573C12.4378 0.511752 12.1149 0.5 9.5353 0.5C6.9557 0.5 6.63281 0.511752 5.6195 0.558605C4.60996 0.605459 3.9159 0.777459 3.31464 1.02348C2.67612 1.27743 2.10458 1.66814 1.62946 2.18002C1.14695 2.68014 0.772155 3.28573 0.534522 3.94992C0.300658 4.5868 0.137403 5.31341 0.0928918 6.37609C0.0446112 7.4467 0.0334473 7.78658 0.0334473 10.502C0.0334473 13.2173 0.0446112 13.5572 0.0891222 14.6239C0.133633 15.6865 0.297033 16.4171 0.530897 17.0502C0.772155 17.7221 1.14695 18.3238 1.62946 18.8239C2.10458 19.3318 2.67989 19.7265 3.31087 19.9765C3.9159 20.2226 4.60619 20.3945 5.61587 20.4413C6.62904 20.4883 6.95207 20.4999 9.53168 20.4999C12.1113 20.4999 12.4342 20.4883 13.4475 20.4413C14.457 20.3945 15.1511 20.2226 15.7523 19.9765C17.0292 19.4568 18.0388 18.3941 18.5325 17.0502C18.7662 16.4133 18.9296 15.6865 18.9741 14.6239C19.0186 13.5572 19.0298 13.2173 19.0298 10.502C19.0298 7.78658 19.026 7.4467 18.9815 6.38005ZM17.2705 14.5457C17.2296 15.5225 17.0737 16.0499 16.9438 16.4015C16.6246 17.2728 15.9676 17.9643 15.1399 18.3004C14.8059 18.4372 14.3012 18.6012 13.3769 18.6441C12.3747 18.6911 12.0742 18.7027 9.53907 18.7027C7.00398 18.7027 6.69965 18.6911 5.70113 18.6441C4.77321 18.6012 4.27214 18.4372 3.93809 18.3004C3.52618 18.1402 3.15124 17.8862 2.84692 17.5541C2.53142 17.2298 2.29017 16.8391 2.13793 16.4055C2.00802 16.0539 1.85216 15.5225 1.81142 14.5497C1.76676 13.4948 1.75575 13.1783 1.75575 10.5097C1.75575 7.84122 1.76676 7.52087 1.81142 6.46995C1.85216 5.49319 2.00802 4.96575 2.13793 4.61412C2.29017 4.18038 2.53142 3.78586 2.85069 3.46536C3.15864 3.13327 3.5298 2.87931 3.94186 2.71921C4.27591 2.58247 4.78075 2.4184 5.7049 2.37537C6.70704 2.32851 7.00775 2.31676 9.5427 2.31676C12.0816 2.31676 12.3821 2.32851 13.3806 2.37537C14.3086 2.4184 14.8096 2.58247 15.1437 2.71921C15.5556 2.87931 15.9305 3.13327 16.2348 3.46536C16.5503 3.78967 16.7916 4.18038 16.9438 4.61412C17.0737 4.96575 17.2296 5.49701 17.2705 6.46995C17.315 7.52484 17.3262 7.84122 17.3262 10.5097C17.3262 13.1783 17.315 13.4908 17.2705 14.5457Z" fill="white"/>
<path d="M9.53513 5.3642C6.84055 5.3642 4.6543 7.66537 4.6543 10.5019C4.6543 13.3385 6.84055 15.6396 9.53513 15.6396C12.2299 15.6396 14.416 13.3385 14.416 10.5019C14.416 7.66537 12.2299 5.3642 9.53513 5.3642ZM9.53513 13.8346C7.78703 13.8346 6.36906 12.3422 6.36906 10.5019C6.36906 8.66166 7.78703 7.16921 9.53513 7.16921C11.2834 7.16921 12.7012 8.66166 12.7012 10.5019C12.7012 12.3422 11.2834 13.8346 9.53513 13.8346Z" fill="white"/>
<path d="M15.7485 5.16118C15.7485 5.82354 15.2383 6.36061 14.6089 6.36061C13.9797 6.36061 13.4695 5.82354 13.4695 5.16118C13.4695 4.49867 13.9797 3.96176 14.6089 3.96176C15.2383 3.96176 15.7485 4.49867 15.7485 5.16118Z" fill="white"/>
</g>
<defs>
<clipPath id="clip0">
<rect width="19" height="20" fill="white" transform="translate(0 0.5)"/>
</clipPath>
</defs>
</svg>
