<svg width="19" height="21" viewBox="0 0 19 21" fill="none" xmlns="http://www.w3.org/2000/svg">
<g clip-path="url(#clip0)">
<path d="M19 4.29875C18.2934 4.625 17.5406 4.84125 16.7556 4.94625C17.5631 4.43875 18.1794 3.64125 18.4692 2.68C17.7163 3.1525 16.8851 3.48625 15.9992 3.6725C15.2843 2.87125 14.2654 2.375 13.1539 2.375C10.9974 2.375 9.26131 4.2175 9.26131 6.47625C9.26131 6.80125 9.28744 7.11375 9.35156 7.41125C6.11325 7.245 3.24781 5.61125 1.32287 3.1225C0.986812 3.73625 0.789688 4.43875 0.789688 5.195C0.789688 6.615 1.48438 7.87375 2.51988 8.6025C1.89406 8.59 1.28013 8.39875 0.76 8.0975C0.76 8.11 0.76 8.12625 0.76 8.1425C0.76 10.135 2.11019 11.79 3.88075 12.1712C3.56369 12.2625 3.21812 12.3062 2.8595 12.3062C2.61013 12.3062 2.35837 12.2913 2.12206 12.2362C2.62675 13.86 4.05888 15.0538 5.76175 15.0925C4.4365 16.1838 2.75381 16.8412 0.932188 16.8412C0.61275 16.8412 0.306375 16.8263 0 16.785C1.72544 17.9563 3.77031 18.625 5.9755 18.625C13.1432 18.625 17.062 12.375 17.062 6.9575C17.062 6.77625 17.0561 6.60125 17.0478 6.4275C17.8208 5.85 18.4704 5.12875 19 4.29875Z" fill="white"/>
</g>
<defs>
<clipPath id="clip0">
<rect width="19" height="20" fill="white" transform="translate(0 0.5)"/>
</clipPath>
</defs>
</svg>
