<svg width="19" height="21" viewBox="0 0 19 21" fill="none" xmlns="http://www.w3.org/2000/svg">
<g clip-path="url(#clip0)">
<path d="M18.6085 5.69897C18.3895 4.84219 17.7478 4.16684 16.934 3.93612C15.4471 3.50781 9.49981 3.50781 9.49981 3.50781C9.49981 3.50781 3.55263 3.50781 2.06579 3.9198C1.26766 4.15036 0.610273 4.84234 0.391241 5.69897C0 7.2639 0 10.5094 0 10.5094C0 10.5094 0 13.7713 0.391241 15.3199C0.610418 16.1765 1.252 16.852 2.06594 17.0827C3.56828 17.511 9.49996 17.511 9.49996 17.511C9.49996 17.511 15.4471 17.511 16.934 17.0991C17.7479 16.8685 18.3895 16.193 18.6087 15.3364C18.9999 13.7713 18.9999 10.5259 18.9999 10.5259C18.9999 10.5259 19.0156 7.2639 18.6085 5.69897Z" fill="white"/>
<path d="M7.6062 13.5078L12.5517 10.5095L7.6062 7.51111V13.5078Z" fill="black"/>
</g>
<defs>
<clipPath id="clip0">
<rect width="19" height="20" fill="white" transform="translate(0 0.5)"/>
</clipPath>
</defs>
</svg>
