<svg width="60" height="60" viewBox="0 0 60 60" fill="none" xmlns="http://www.w3.org/2000/svg">
<circle cx="30" cy="30" r="30" fill="#F43F30"/>
<path d="M23.062 40.5C22.522 40.5 21.988 40.344 21.46 40.032C20.944 39.732 20.284 39.264 19.48 38.628C18.88 38.148 18.364 37.758 17.932 37.458C17.512 37.17 17.05 36.924 16.546 36.72C16.054 36.516 15.55 36.414 15.034 36.414C14.854 36.414 14.716 36.42 14.62 36.432L17.302 23.958C16.498 24.282 15.874 24.78 15.43 25.452C14.998 26.112 14.782 26.922 14.782 27.882C14.782 28.326 14.824 28.638 14.908 28.818C14.992 28.986 15.034 29.082 15.034 29.106C14.386 29.106 13.9 28.974 13.576 28.71C13.264 28.434 13.108 27.984 13.108 27.36C13.108 26.592 13.42 25.848 14.044 25.128C14.68 24.396 15.49 23.808 16.474 23.364C17.458 22.908 18.442 22.68 19.426 22.68C19.594 22.68 19.834 22.692 20.146 22.716L17.374 35.64C17.71 35.724 18.052 35.844 18.4 36C18.76 36.168 19.192 36.39 19.696 36.666C20.476 37.086 21.142 37.404 21.694 37.62C22.246 37.848 22.822 37.962 23.422 37.962C23.962 37.962 24.466 37.866 24.934 37.674C24.838 38.55 24.622 39.24 24.286 39.744C23.962 40.248 23.554 40.5 23.062 40.5ZM22.3943 36.108C21.5063 36.108 20.8163 35.88 20.3243 35.424C19.8323 34.956 19.5863 34.23 19.5863 33.246C19.5863 32.418 19.7483 31.506 20.0723 30.51C20.3963 29.514 20.9243 28.656 21.6563 27.936C22.3883 27.204 23.3183 26.838 24.4463 26.838C25.7663 26.838 26.4263 27.414 26.4263 28.566C26.4263 29.238 26.2343 29.856 25.8503 30.42C25.4663 30.984 24.9563 31.44 24.3203 31.788C23.6843 32.124 23.0063 32.316 22.2863 32.364C22.2623 32.724 22.2503 32.964 22.2503 33.084C22.2503 33.672 22.3523 34.074 22.5563 34.29C22.7603 34.494 23.0903 34.596 23.5463 34.596C24.1943 34.596 24.7463 34.446 25.2023 34.146C25.6703 33.846 26.1803 33.39 26.7323 32.778H27.3443C26.0123 34.998 24.3623 36.108 22.3943 36.108ZM22.4303 31.5C22.8743 31.476 23.2943 31.32 23.6903 31.032C24.0983 30.744 24.4223 30.378 24.6623 29.934C24.9143 29.49 25.0403 29.022 25.0403 28.53C25.0403 28.038 24.8903 27.792 24.5903 27.792C24.1583 27.792 23.7323 28.17 23.3123 28.926C22.9043 29.682 22.6103 30.54 22.4303 31.5ZM29.7345 26.028C29.3385 26.028 29.0025 25.89 28.7265 25.614C28.4505 25.338 28.3125 25.002 28.3125 24.606C28.3125 24.21 28.4505 23.874 28.7265 23.598C29.0025 23.31 29.3385 23.166 29.7345 23.166C30.1305 23.166 30.4665 23.31 30.7425 23.598C31.0305 23.874 31.1745 24.21 31.1745 24.606C31.1745 25.002 31.0305 25.338 30.7425 25.614C30.4665 25.89 30.1305 26.028 29.7345 26.028ZM28.5105 36.108C27.9345 36.108 27.4665 35.928 27.1065 35.568C26.7585 35.208 26.5845 34.668 26.5845 33.948C26.5845 33.648 26.6325 33.258 26.7285 32.778L27.9525 27H30.5445L29.2485 33.12C29.2005 33.3 29.1765 33.492 29.1765 33.696C29.1765 33.936 29.2305 34.11 29.3385 34.218C29.4585 34.314 29.6505 34.362 29.9145 34.362C30.2625 34.362 30.5865 34.218 30.8865 33.93C31.1865 33.63 31.4025 33.246 31.5345 32.778H32.2905C31.8465 34.074 31.2765 34.956 30.5805 35.424C29.8845 35.88 29.1945 36.108 28.5105 36.108ZM34.1013 36.108C33.2133 36.108 32.5233 35.88 32.0313 35.424C31.5393 34.956 31.2933 34.23 31.2933 33.246C31.2933 32.418 31.4553 31.506 31.7793 30.51C32.1153 29.514 32.6433 28.656 33.3633 27.936C34.0953 27.204 35.0193 26.838 36.1353 26.838C36.8553 26.838 37.3653 26.994 37.6653 27.306C37.9773 27.618 38.1333 28.014 38.1333 28.494C38.1333 28.914 38.0433 29.238 37.8633 29.466C37.6833 29.694 37.4553 29.808 37.1793 29.808C36.9753 29.808 36.7653 29.736 36.5493 29.592C36.6933 29.196 36.7653 28.842 36.7653 28.53C36.7653 28.302 36.7233 28.122 36.6393 27.99C36.5553 27.858 36.4293 27.792 36.2613 27.792C35.9013 27.792 35.5413 28.086 35.1813 28.674C34.8213 29.262 34.5273 29.976 34.2993 30.816C34.0713 31.656 33.9573 32.412 33.9573 33.084C33.9573 33.672 34.0593 34.074 34.2633 34.29C34.4673 34.494 34.7973 34.596 35.2533 34.596C35.9013 34.596 36.4533 34.446 36.9093 34.146C37.3773 33.846 37.8873 33.39 38.4393 32.778H39.0513C37.7193 34.998 36.0693 36.108 34.1013 36.108ZM40.5955 36.108C39.9115 36.108 39.3415 35.874 38.8855 35.406C38.4295 34.938 38.2015 34.206 38.2015 33.21C38.2015 32.322 38.3755 31.392 38.7235 30.42C39.0835 29.436 39.6115 28.608 40.3075 27.936C41.0155 27.252 41.8555 26.91 42.8275 26.91C43.3195 26.91 43.6855 26.994 43.9255 27.162C44.1655 27.33 44.2855 27.552 44.2855 27.828V27.954L44.4835 27H47.0755L45.7795 33.12C45.7315 33.3 45.7075 33.492 45.7075 33.696C45.7075 33.936 45.7615 34.11 45.8695 34.218C45.9895 34.314 46.1815 34.362 46.4455 34.362C46.6135 34.362 46.7455 34.338 46.8415 34.29C46.5775 34.962 46.3255 35.436 46.0855 35.712C45.8455 35.976 45.4975 36.108 45.0415 36.108C44.5495 36.108 44.1475 35.964 43.8355 35.676C43.5355 35.376 43.3495 34.962 43.2775 34.434C42.5455 35.55 41.6515 36.108 40.5955 36.108ZM41.7655 34.362C42.0655 34.362 42.3595 34.224 42.6475 33.948C42.9475 33.66 43.1515 33.27 43.2595 32.778L44.1235 28.71C44.1235 28.554 44.0635 28.404 43.9435 28.26C43.8235 28.104 43.6375 28.026 43.3855 28.026C42.9055 28.026 42.4735 28.308 42.0895 28.872C41.7055 29.424 41.4055 30.096 41.1895 30.888C40.9735 31.668 40.8655 32.358 40.8655 32.958C40.8655 33.558 40.9495 33.942 41.1175 34.11C41.2975 34.278 41.5135 34.362 41.7655 34.362Z" fill="white"/>
</svg>
